<?xml version="1.0" encoding="utf-8"?><svg xmlns="http://www.w3.org/2000/svg" version="1.1" baseProfile="tiny" width="256" height="256" viewBox="0 0 256 256"><g><g stroke="#000000" stroke-width=".98" fill="none"><path d="m13.56 55.49l-.73-.04-1.08.58-.76.31.28 1.36.25 2.09-.77 1.1-1.1.78-.83.76-.74.95-.17-.54-.58.83-.61 1-1.38.31.08.58-.42.74.53 1.07.22.66-.01.81.05.74.12.82.1.93.29 1.39.68.99 2.29 1.47.89 1.11 2.9 1.57 2.07 1.5.81-.71 1.09-.24 1.62-.04 1.65.2 4.07.89 2.43-.05 3.09-.16 2.14.09 2.45 1.12.86 1.02.02.37.72.65.2-.19.35.64 1.32.14.88.14.95.83 1.68.42 1.2.41.5.59.31.61.93-.1.58.44 1.21.62 1.42.9 1.27.74.42.4.64.54-.43-.03-.79-.32.19.72.91.59.93.01 1.11.02.91-.1 1.44.39 3.23.79 1.08-.42.85.1.58-.03.48-.05.67-.21.99-.43.56-.39 3.31-.68 2.17.45.77.28 1.32-.44 1.05.17.54-.5.97-.62.48-.34.26.29-.08.4-.19.51.09.7 1.07.52.19.81 1.1.71-.04.6.08 1.61 1.09.79.04.79.44.44.8.82 1.26.52.6.9 1.71 1.3.1 1.2-1.27 1.7.99 1.56.27.85 1 .49-.78 1.11.54.57-1.08.67 1.25.69.82.45 1.42.88.98.21 1.63.85.16.85.2.64.65.48.11.6-.02.62.03.32.58-.35-.16.63.07.42-.29.46.31.61-1.05.15-.06.38 1.66.77.13.61.12.87.56.76.28 2.15.67 1.89-.65 1.3-1.04 1.25.72.76.1.45.55.91.9 1.04 1.53.95 1.34 1.2 1.3.34.53 1.11 1.21.81 1.52 1.25 1.58.55.73 1.24 1.13-.02.32.36.44.81.56.7.87.45 1.48.29.89.51 2.43-.25 2.66 1.59 1.1.45 2.34.56.8.42 1.66.37 2.53.76 1.26.04 1.29.15.89.12 1.48.07 1.49-.17.76-.19.88.22.91.38.88-.23.56-.17.59-.15-.07.42 1.01.46.84-.35 1.37-.01.96-.34 1.09.45 1.36.56-.31.92 1.2-.11-.4.26-.43.73 1.04.66-.61 1.26.42.69.67-.94 1.08 1.16 1.07.95 1.83.18.62.29.83.17.2.62-.04.48.93.63.71.08.49.1 1.33.4.34.62 1.37.66 2.16.78.39.69.41.59.71.17 1.26.07.94-.06 1.01.42 1.23.83.37.63.31.11 2.98 1.15 1.82 1.34.64.27.82.75.95.46 1.06.57.66.57.27 1.11-.62.69-.68.92.73.76.51.59.95.62 1.5 1 .77.86.39 1.05 1.41.3 1.89-.16 1.33.09 1.48-.56 1.06-.48.46-.45.45.63 1.43-.22.54-.46 1.25-.26.87-.54.74-.66 1.24-.69.74.4.8-.3.72-.04.9-.02 1.41-.01 1.04.27 1.58-.44.72-.58 1.48-.23.61-.54.69-.14.67-.23.83.06.69.23.96.43.67-.5.76-.83-.06-.84.87.68.29-.01.55-.65.76-.57.05-.34.65-.01 1.88-.02.93.76 1.38.14.87.7 1.1.55.64.49.22.67.99.33.78.29 1.21.07.98.17.34.2.69-.14 0-.28.38.32.09.27.51-.24-.04.19.31-.28.02.43.88.15.79.47.38.7.01.76.19.77-.63.66.36.85-.95 1.22-.3 1.52-.11 1.18-.71.33-.83-.02-.9.51-.13.57-.39.71-.04.53-.93 1.28-1.41-.08-.51 1.1.43.98.47.81.8.13.96.42 1.44.5.75.78.63.64.76 1.13.51 1.08 1.38 1.17.96.4.82 1.12.38.33-.18.52-.19.65.49.62.73.17.82.64.11 1.27.19.4.65.95 1.31.67.76-.07.48.35.77-.06.06-.43.28-.51-.35-.74.04-.83.52.8.23.11.68-.18.41.51 1.2.26-.87.36.51.23-.06.5.51-.13.93-.11 1-.4 1.11.46.98.67 1.33-.15 1.81-.29.44.28-.58.18-.74.03-.34.51-.82.22-.34.18.79.5 1.07.2-.41-.16.74.14-.05-.19-.86-.24.4-.14.81.1-.16-.24.94.18.74-.19 1.01.01.97.09.84-.38.61-.34.57-.5.68-.25.67-.07.44.29.91-.68.91-.27.42-.48.57.04 1.18.11" /></g></g></svg>