<?xml version="1.0" encoding="utf-8"?><svg xmlns="http://www.w3.org/2000/svg" version="1.1" baseProfile="tiny" width="256" height="256" viewBox="0 0 256 256"><g><g stroke="#000000" stroke-width=".98" fill="none"><path d="m5 104.94l.32-.31.51.35.07.25.75.19.54.2-.08.23.2.17.19.22-.16.21.04.21-.09.28.21-.14.24-.07.25.12.23.19.17.15.46.23.31.11.32.36.14.34.17.34.13.34.18.31.43.23.21.27.6.24-.12.78.24.17-.36.08.27.24-.18.18-.39.21 0 .1.06.24.08.26.03.45-.2.65.09.59-.12.59.24.43.38.24.58 0 .97.3 1.54.27 1.96.37 1.13.04.43.52.45.54 1.4.46.99.99.63.38.42.58.95.99 1.75.38-.26.58-.2.39.24.92.47.89.63.49.35.11.46-.01.04 1.31.57.98.1.11.7.78.15.99 0 .59.68.07.5-.79.74.1 1.44.25 1.48-.01 1.89-.3.82-.36.74-.57.35-.48 1.57-.64 1.16-.32.2-.61.67-.15.86.03 1.27.23.83.41.48-.02.46.01.33-.07.86-.43.82-.3.29-.37.31-.4-.05-.14-.52.19-.45-.17-.32-.28-.22-.2-.5-.27-.57-.4-.37-.45-.55-.31-.6-.44-.56-.2-.51-.43-.55-.63-.32-.37-.51-.39-.47-.14-.27-.63.21-.58-.23-.53.56-.64.61-.51.61.14 1.06.51.7-.35.79-.3 1.09-.05.5.09.79-.03.87-.12.63-.14 1.23-.11.12.28.44.46.41.08.52-.27.55-.1.27-.29.63 0 .41-.03.32.05.53.02.5-.5.88-.15.68-.09.32-.17.83-.1 1.19-.12.79.38-.02.32-.14.15-.02.14.39.01.76-.06.45-.11.85.84.23.23.1 1.94 1.11 2.34.81 1.03 1.11.66 1.09.61.09.8.52.47.27.55.41.29.06.23.5.13.68.02.26.11.38.08.2.27 1.7.48.69.36.78.01.76.39.48.58.46.47.49.04.5-.05.62.06.26.18.35.16.4.11.41-.13.31.26.24.12.16.12.15.14.31.05-.02.15.09.16-.11.17-.03.09-.05.03.06-.11.14-.16-.11-.16.09-.17-.38-.03.08-.1.27-.09.16-.17.32.06.22-.02.38-.04.27-.1.28.01.3.1.32.07.27-.07-.38-.43-.1-.46.03-.47.4-.38.06-.49.71-.08.4-.12.41.03.96.25 2.02.11 2.33-.03 1.92-.23 1.42-.62 1.34-.73.31-.18.73-.39.73-.37.78-.45.29.02.69 0 .59-.17 2.19-1.42 1.53-.4.56-.43 1.66-.39 2.64.39 1.62.29.79-.06 1.38.1 2.19.33 2.16-.36.96-.42.25-.09.87-.22.73-.38.53-.43.43-.1.96-.2 1.23-.21.55.3.24-.2.14-.41.13-.66.41-.62.53-.33.5.09.3.04.3-.1.02-.24.23-.11.38-.13.35-.13.36-.27.45-.26.42.05.32-.18.34.16.74.1.58.1.29.16.41.05.59.37.59.18.28.2.18.19.36-.06.33-.02.42-.11-.19.22.69-.12.35.19.53.25.86.41.35.29.01.12.19.09.15.38.03.4.25.3-.43.73.78.36.84.13.08.15.37.29.74.11 1.1.23 1.12.05 1.05.01.86-.02.66.1.7.19.67-.04.86-.14.7-.19.42-.28.35.1.63.43.31-.09.55.16.81.19.68.1.46.06.11.41.25.21.13.19.18.22.22.22.29.2.24.18.83.46.42.17 1.07.46-.29.52-.72 1.04-.96 1.8-.34.83.34.45.54.27.02.13.17.18 1.51-.12.58.09 1.21-.38.73-.6.16-.29.45-.12.2-.23.35-.22.32-.06.89-.03.58-.14.39-.16.53-.31.46-.16.51-.19.19-.17.25.07.52-.06.66-.11.88-.21.75-.19.58-.21.71-.12-.02.48 1 .24.56.01 1.42.09 1.17.11 1.2-.17.78-.09.02-.4.15-.09.48-.36 1.6-.09 1.43-.06 2.44-1.21.96-.33.57-.24.26-.54-.64-.6-.18-.71.34-.09.06-.08.51.13.19-.11.45-.26.14-.18.17-.21-.23.3-.21.25.27.42.23.45-.01.19.1.33.15.28.22.49.51.25.3.26.76.14-.83.35-.41.22.08-.02.16.25.06.33.3.12-.12.33.16.27.14-.04.23.04.69.04.28 0-.24.19-.07.11.34.09.3.27.31.13.34-.24.49.25.36.29.37.14.38.14.42.12.12-.04.6.16.55.15.14.25.36.17.67.18.35.22.58.25.92.51.06-.53.57.21-.11-.49.36.13.49.32.21.16.45-.26-.68-.22-.05-.35.65-.1.35-.36.61-.26.7.1.26.27.53.5.56.28.82.18 1.04.36.43.35.91.33.64.41 1.19.13-.08-.55 1.22.23.98-.01 1.51.08.87.02.71-.03.11.73.16.48.08.72.16.71-.42.5-.75.28-.22.61-.34.77.61.5-.41.12-.89.23-.68.12 0 .1.43.02.41.1-.11.09-.45.19.25.26.03.15.07-.35.48-.12.64-.07.45-.21.39.16.49.06.61-.22.33-.23.33.42.64.39-.02-.31.41-.12.71.02.47-.13.29-.13.03-.13.27-.1.54.13.53.25.71.24.88-.28.34.12.4.26.23.2.44.27.83.11.83.4.47.07 1.05.2.68.11.58.05.27.59.16.64-.03.48.4-.08.45-.08.2.22.29-.11.2-.1.3.15-.11.33-.17.2-.04.3-.21.3-.14.36-.1.25-.17.33-.34.26-.41.81-.77 1.05-.4.61-.03.28-.13.18.28.07.01.03-.07.16-.16.42-.74.36-.19.44.19.54.42.24.5.14.56.3.38.37.63-.16.15-.02.45-.15.28-.18.28.05.24-.04.28-.03.74.04.49-.23-.03-.08.6-.1.48.11.22.24.26 0 .26.21.51-.07.13.03.07.15.26.25.31.25.23.24.36.21.34-.08.24-.09.23-.22.33.12.2-.08.28-.09.28-.12.29-.06.31-.2.46-.08-.32-.19-.12-.42.25-.17-.01-.39.15-.33-.09-.3.25-.25.28-.32-.23-.33.05-.27-.28-.44.7-.2.53-.12.37-.02.21-.35.2-.15.29-.46.21-.14.1-.13-.22.21.19-.21.64-.43.46-.2 1.29-.29 1.7.03.13-.16.31-.08.59.12.46.2.25.22-.01.27.18.23.26-.43.36-.3.75-.27.66-.73.61-.34.48-.17 1.32-.18.56.15.48.08.47-.12.17-.26.01-.19.15-.23.08-.26-.22-.07-.24-.26.21-.2.1-1.25.43-1.06.27-1.03.63-.39.7-.62.92-.37.72.08.94-.22.81-.39 1.12-.15.74-.68.98-.89.91-.5.4-.09.46-.21" /></g></g></svg>