<?xml version="1.0" encoding="utf-8"?><svg xmlns="http://www.w3.org/2000/svg" version="1.1" baseProfile="tiny" width="256" height="256" viewBox="0 0 256 256"><g><g stroke="#000000" stroke-width=".98" fill="none"><path d="m240.67 86.02l.13-1.2.23-1.31-.02-1.13 1.26-1.97.46-1.03-.06-2.28.64-2.36 1.15-.93-.63-1.39.58-1.43.66-1.18.69-1.06 1.29-1.34.54-1.23.95-.89.23-1.1 1.06-.8.44-1.22.43-1.63.3-1.64-.44-1.63-.95-2.58-.28-1.66 0-.93-1.56-.88.57-1.53.31-1.11-.08-1.19.1-1.03-.47-1.11-.07-1.3-.21-1.56-.9-.78-1.27-1.04 1.18-1.1-.41-1.52-.62-2.89-.21-1.98-.84-1.87.13-1.27-.17-2.29-.19-1.07-1.08-1.58.55-1 .24-.9-.8-1.2-.93-.83-1.4-1.13.07-1.23-1.19-1.21-3.42.82-1.25.16-1.19-.24-.86-.28.14-1.38-.83-.58-.38-.82-1.44-.33-1.8.27-1.93 1.04-1.46.79-1.86.17-.82.05.73-1.61-.41-1.03-1.26-1.08-1.52-.68-1.96.68-1.23.5 1.58 1.37.25 1.2-1.46.44.08.98.8.81-.78.62-.93.89-.63.94 1.47.8-.95.34-1.19.52-1.04.5-1.8 1.26 1.07.76.72.39 1.05-.16-.04.93.37.5-.63.62-.89-.06-.2 1.13.18.44-.13.46-1.39.12.25 1.24.18-.25.09.9-1.14.35-1.77.65-.84.6-1.84.85.14 1.07.56.96.11 1.02-.19 1.06-.77.78.59.96 1.82.18 1.48-.34 1.25.37 1.44.65.23.73 1.06.35-.21.51-.27 1.08-.34 1.23-.83-.15-1.17.04-.65.22-2.36-.32-1.15 1.27-.96 1.6-.89.67-1.37 1.35-1.05.83-1.25 1.41.89 1.24-.25.08 1.14 1.36.28 1.48.68 1.67 2.13.15.88.45-.49.5.58.72 1.36.95.77.73.78.37-.28 1.07.66.84-.27 1.07-1.08.98-.51 1.68.29.89-.04 1.07-.86 1.03-.57 1.36 1.76.23-1.38.6.58 1.45.45 1.12.46 1.09.52 1.51-.22.71 1.57.06 1.16 1.25 1.46-.06.25-.03 1.04.28-.29.56-1.34.42.48 1.33-.87.77-.12 1.39 1.26 1.06.81.9 1.52.89-.43.4-1.14.25-.46.17-.29.93-.45.92-.92 1.11-1.39.08-.95 1.89-1.49 2.38-1.85 1.38-3.71-.77-2.22-1.42-1.12-.31-2.67-.04-.24 2.27-1.79-.25-1.76.71-1.53 1.47-1.82 1.01-1.05.73-.77.99-.73 1.21-1.45-.37-2.6-1.31-1.61-.03-1.14-1.13-.98-.23-1.93.31-1.05-1.15-2.71.01-1.2.15-2.45.2-2.31-.35-1.37-.7-.65-.99-.4-1.01-.4-.77-1.11-.55-1.14-.75-.38-1.38-.32-.54.83-1.02 2.18-1.23 1.6-1.2.27-1.05 1.65-1.2 1.85-.44-.24-1.51-.68-.95-.78-.88-1.03-.54-1.16-.11-1.23-.39-1.2-.56-1.47.1-.38-.7-1.77-.58-1-.47-.92.04-1.33.39-1.33.45-1.37.23-1.53-.31-2.11 1.19-1.25.42-1.54.98-.64.61-.39.84-.52 1.04-1.3.66-.39.65.06.78-.51.56-.97-.01-.77.33-.26.87-1.48.73-.72.77-1.06.67-1.07.9-1.03.74-.45 1.26.58 1.72.21 1.08-.13 1.19.62 1.02-.57.99-.74.77-.8.33-1.51.88-4.94-1.11-4.5 1.18-2.74.08-1.52 2.87-1.36.95-3.62.3-1.77-.82-5.72.57-1.81-.01-3.21 1.79-3.23-.1-3.7.04-2.99 1.09-.23-.5-.71-.08-.86-.22-.47.19-.49.58-2.39.65-1.93.48-1.46.06-1.46-.23-1.62 1.38-1.08 1.69-2.15 1.37-2.41-.09-2.13.79-3.1.63-1.17 2.23-.8 1.7-1.66.99.95 1.75-.21 1.53-2.33 1.69-5.36 1.48-4.26 3.33-3.53-1.18-2.07-.32-1.31.07-1.7-1.8.06-1.57-1.52.31-2.05.54-1.96.54-1.59.97-1.01.62-1.09 1.05.23 1.28 1.08-.06-.19.74-1.86.67 1.46.9-1.04.87.19 1.87 1.67 1.27-1.94 1.25-2.21-.83-1.13 1.05-.84-.43-2.02.44-2.15.62 0 0-.51.62-1.87 1.81-.86 1.54 1.11 1.25.62 2.38.34 2.04.29.76-.74.92-.69 1.24.1.79.17 1.25-1.25-.17-1.3 1.04-.43 1.19.05.71.22.77.4.81-.71 1.1-1.59.22-.87 1.58 2.04.04-1.14 1.23-.04.99.2.73 1.38.13.59.43 1.51.41-.64 1.16 1.3 1.94 3.87 2.33-.21 2.72-2.94.93.67.41-.37.82-.24.99-.42.41-.95-.1-.65.76-.23.9-.72-.18-1.31.85.8 1.11-1.43-.23-.41.64-.82.65-1-.45-1.08.48-1.72.02 1.01.95.03.58-1.48 1.03-.65.83 1.55.34.98-.42 1.21-.18.3.63.6.32 1.07.15-1.26.96-.33.53-.37.53-1.09.75-.89.83-1.49-.09-1.23.19-1.17.14-.03 1.52-.51.82 1.38.76 1.29 0 1.32.6 1.2-.04.04-1.19 1.04.25 1.07.94-.21 1.31 1.85-.49.52-.86.87 1.19 1.43-.67.15 1.01 1.37.52-.15 1.04-.31.86-.63.72-1.63.45.84.78.26.91.75.49-.3.92 1.14.34.8-.76.33-.38 1.06.19 1.31.62.8-1.39.75.54-.58 1.11-.46.85-.6.75-.25 1.11-.39.84-.44.88.78.76 1.45.78 1.58.58 1.11.86-.46.33-1.17-.12-2.53-.05-1.07.4-1.79-.01-1.93.85-1.18.25-.56.53-.76-.27-1.25.46 1.66.21-2.24.38-.6.27-.01.91-.81.07-.52 1.19-.39 1.13-1.5-.31-1.53.19-1.26.42-1.01.07-1.36 1.97.87 1.92 1.77.31 1.34 1.63 1.32.61 1.57.53.19.91-2.04.48-.94.88-.87 1.02-.86 1.43-1.12.87-1.3-.43-1.45 1.79-3.3 3.76-1.56 1.55-2.24 1.8-.36 1.35-.52 1.43 1.12 1.61-.22 1.67-.45 1.18" /></g></g></svg>