<?xml version="1.0" encoding="utf-8"?><svg xmlns="http://www.w3.org/2000/svg" version="1.1" baseProfile="tiny" width="256" height="256" viewBox="0 0 256 256"><g><g stroke="#000000" stroke-width=".98" fill="none"><path d="m34.48 5.67l2.16-.37 1.56-.2 2.59-.1 1.47.65.28 2.53 2.08.85 2.39-.55 3.05.6 2.15 1.28 1.25 2.14 1.56 1.22 2.6.75 4.08.63 2.31-1.46 1.02-1.81 1.18-.22 1.95.65 1.18 1.69 1.61 1.58 1.07 2.23-.59 1.76 4.02 5.12.25 3.97 5.58-.49 2.45 2.22-.23 1.41.95 1.16 1.92 1.53.78 2.61.74.64 1.55.62.31.76-1.07.47-1.28.38-1.9.84-1.66.9-1.51.87-2.08.09-1.82 1.57 1.04 1.03 1.82.56 2.21.53-.09 1.39.12.96 3.52.4-2.6.77-2.65.57-2.97.62-1.86 1.35-1.11.94-.32.76.35 1.25-.68 1.21-.85 1.24.76 1.58-.61.8 2.56 2.04-.01.81 1.15 1.37 1.46 1.97.92 1.18-.49 1.16.27 1.8.4 1.1.09.98.1 2.45-.17 2.05.68-.13.1-1.51-.14-1.59.45-1.54 3.26-.82 1.95.68 2.15.8 2.78.3 2.89.94 2.21-.33 3.88-.38 2.42-1.85 1.65 3.07 2.25.77 1.7-.69 1.53.43 2.01-.32 1.34-.3 1.39.43 4.51-.28 4.32-1.58.99-1.45 3.58.47 4.27-.89 1.74-1.28.92-.62 1.89.4.9.76 1.09.04-.2-.64.21-.86.48-.65 1.39-.19.98-1.2 1.28-.32 1.44-1.43-.59-1.01 1.09-.89.65-1.22 1.54-.05 1.28-1.34 1.06-.3-.21-.07.53-1.17 1.31.3 1.33.55 1.02.84.61-.69.83-1.12.45-1.6 1.03.15 1.23 0 1.18-.23 1.28.32 1.18-.42 1.41.24.81.44.93.15.78-1.2 1-.45 1.93-.49.47.84 1.65.39 1.88-1.16-.45 1.08-1.78 1.67-1.56 1.12-.56 1.38.57 1.32-1.81.48-1.7 1.41-.52.82-.64.92-.55.83-.72 1.14-.88 1.65-1.75 1.18-2.2 1.44-1.06 1.83-2.83-.15-1.75.89-2.78.85-3.62-.1-4.75.59-3.01.09-1.66-.1-1.86-.06-1.35-.41-3.46.89-4.85 2.15-5.69.12-2.35.89-1.8.75-2.04.61-2.56 2.31-1.77.83-4.08.33-1.49-.03-1.31 1.47-2.69 1.36-2.48 1.95.03 2.07 1.38 1.69.22 1.75-.03 1.62-1.76 2.98-2.89.68-2.36 1 .18 1.04 3.87 1.72 1.37 1.49-2.18 1.22-1.46 4.83-.9 1.54.22 1.36-.4.94.25 1.7-.84.5 2.58-.14 2.26.05 2.08-1.55 1.56 1.23.83.52 2.91-1.18-.99.98.57.75-.16.62 1.37-1.61 1.53-.06 1.82.76 1.48-.33-1.1 1.67-.09 1.63-.39 2.3-1.77 1.17 1.23.07-.71.97-1.18 1.37.24 1.5.09 1.64-.19.36-1.12.52 1.21.46 1.64.69 2.16.29.59.84-1.28.51.46 1.67-.65.96 1.07 1.33 1.39 2.08 2.06 3.21-.88 3.55 3.66 2.47 3.21-.65 1.93.07 2.01.72 2.19-.06 1.04-.68 1.77.09.88.92 2.06.21 1.97.39.98-.86 1.79.08 2.08.19.99.94 1.84 1.77.08 2.82-.62 1.29.33 1.48.82 1.01-1.17 2.12.01 1.73 3.05.53 3.81 1.48 2.36.65 5.07 2.77-.32 2.08-1.03 2.47-1.01 2.38 1.91-.91 1.29.49 1.95-.15.92-.13 1.87 1.07 2.07.14-1.27.68-.58.93-1.41 2.12-.61 1.52 2.13-.48.66.21-1.91 1.35 1.98.61 1.69 1.31-1.9-1.99 2.34-.05 2.67.17 1.52.38 1.29.11 1.32.62 1.85.25 1.3.05-3.72 4.03-4.29 2.14-4.08 5.29-1.67 2.91-2.66 2.6-1.23 1.83-.98 2.8-1.62 1.24-1.68 1.06.02 1.54-1.23.7-2.24 2.76-1.13 1.86-.14 1.45.51 1.23 1.67.26 2.54-1.65 1.31.2 1.16.46 1.54-.63 2.2.88 5.53-.37 8.5-2.72 9.76 1.85 3 .89 2.02.21 5.93 3.01 6.56 4.7 2.4 3.92 3.54 2.12 3.02 6.72-.4 1.72.92 2.96.86 2.3 10.83 2.4 1.53 1.15-.71 1.58.82 1.65-1.24.67" /></g></g></svg>